# xmcd
#
# Track frame offsets:
#	150
#	12165
#	22112
#	34200
#	48490
#	56092
#	68145
#	86862
#	97285
#	107820
#
# Disc length: 1575 seconds
#
# Revision: 0
# Processed by: cddbd v1.5.1PL2 Copyright (c) Steve Scherf et al.
# Submitted via: EasyCDDAExtractor 9.0.0.1
#
DISCID=8d06250a
DTITLE=Various Artist - Christmas Country Style
DYEAR=1992
DGENRE=Country
TTITLE0=Johnny Cash - Little Drummer Boy
TTITLE1=Anita Bryant - O Come, All Ye Faithful
TTITLE2=Jimmy Dean - Blue Christmas
TTITLE3=Marty Robbins - Hark The Herald Angles Sing
TTITLE4=Ray Price - Jingle Bells
TTITLE5=Tammy Wynette - White Christmas
TTITLE6=Jim Nabors - O Holy Night
TTITLE7=Lynn Anderson - Frosty The Snowman
TTITLE8=Carl Smith - Silent Night Holy Night
TTITLE9=Jimmy Dean - It Came Upon A Midnight Clear
EXTD=
EXTT0=
EXTT1=
EXTT2=
EXTT3=
EXTT4=
EXTT5=
EXTT6=
EXTT7=
EXTT8=
EXTT9=
PLAYORDER=
